<svg width="86" height="86" viewBox="0 0 86 86" fill="none" xmlns="http://www.w3.org/2000/svg">
<mask id="mask0_11_117" style="mask-type:alpha" maskUnits="userSpaceOnUse" x="0" y="0" width="86" height="86">
<rect width="86" height="86" fill="#D9D9D9"/>
</mask>
<g mask="url(#mask0_11_117)">
<path d="M14.3333 71.6666C12.3625 71.6666 10.6753 70.9649 9.27183 69.5614C7.86836 68.1579 7.16663 66.4708 7.16663 64.4999V21.4999C7.16663 19.5291 7.86836 17.8419 9.27183 16.4385C10.6753 15.035 12.3625 14.3333 14.3333 14.3333H71.6666C73.6375 14.3333 75.3246 15.035 76.7281 16.4385C78.1316 17.8419 78.8333 19.5291 78.8333 21.4999V64.4999C78.8333 66.4708 78.1316 68.1579 76.7281 69.5614C75.3246 70.9649 73.6375 71.6666 71.6666 71.6666H14.3333ZM43 46.5833L14.3333 28.6666V64.4999H71.6666V28.6666L43 46.5833ZM43 39.4166L71.6666 21.4999H14.3333L43 39.4166ZM14.3333 28.6666V21.4999V64.4999V28.6666Z" fill="#1C1B1F"/>
</g>
</svg>
