<svg width="50" height="50" viewBox="0 0 50 50" fill="none" xmlns="http://www.w3.org/2000/svg">
<mask id="mask0_22_46" style="mask-type:alpha" maskUnits="userSpaceOnUse" x="0" y="0" width="50" height="50">
<rect width="50" height="50" fill="#D9D9D9"/>
</mask>
<g mask="url(#mask0_22_46)">
<path d="M14.5833 45.8333C13.4375 45.8333 12.4566 45.4254 11.6406 44.6094C10.8247 43.7934 10.4167 42.8125 10.4167 41.6667C10.4167 40.5208 10.8247 39.5399 11.6406 38.724C12.4566 37.908 13.4375 37.5 14.5833 37.5C15.7292 37.5 16.7101 37.908 17.5261 38.724C18.342 39.5399 18.75 40.5208 18.75 41.6667C18.75 42.8125 18.342 43.7934 17.5261 44.6094C16.7101 45.4254 15.7292 45.8333 14.5833 45.8333ZM35.4167 45.8333C34.2708 45.8333 33.2899 45.4254 32.474 44.6094C31.658 43.7934 31.25 42.8125 31.25 41.6667C31.25 40.5208 31.658 39.5399 32.474 38.724C33.2899 37.908 34.2708 37.5 35.4167 37.5C36.5625 37.5 37.5434 37.908 38.3594 38.724C39.1754 39.5399 39.5833 40.5208 39.5833 41.6667C39.5833 42.8125 39.1754 43.7934 38.3594 44.6094C37.5434 45.4254 36.5625 45.8333 35.4167 45.8333ZM12.8125 12.5L17.8125 22.9167H32.3958L38.125 12.5H12.8125ZM10.8333 8.33333H41.5625C42.3611 8.33333 42.9688 8.68924 43.3854 9.40104C43.8021 10.1128 43.8195 10.8333 43.4375 11.5625L36.0417 24.8958C35.6597 25.5903 35.1476 26.1285 34.5052 26.5104C33.8629 26.8924 33.1597 27.0833 32.3958 27.0833H16.875L14.5833 31.25H39.5833V35.4167H14.5833C13.0208 35.4167 11.8403 34.7309 11.0417 33.3594C10.2431 31.9879 10.2083 30.625 10.9375 29.2708L13.75 24.1667L6.25001 8.33333H2.08334V4.16667H8.85418L10.8333 8.33333Z" fill="#1C1B1F"/>
</g>
</svg>
